<?xml version="1.0" encoding="utf-8"?>
<!-- Generator: Adobe Illustrator 16.0.0, SVG Export Plug-In . SVG Version: 6.00 Build 0)  -->
<!DOCTYPE svg PUBLIC "-//W3C//DTD SVG 1.1//EN" "http://www.w3.org/Graphics/SVG/1.1/DTD/svg11.dtd">
<svg version="1.1" id="Capa_1" xmlns="http://www.w3.org/2000/svg" xmlns:xlink="http://www.w3.org/1999/xlink" x="0px" y="0px"
	 width="1032.104px" height="774.077px" viewBox="383.763 288.28 1032.104 774.077"
	 enable-background="new 383.763 288.28 1032.104 774.077" xml:space="preserve">
<g transform="translate(0.000000,1358.000000) scale(0.100000,-0.100000)">
	<path fill="#008C00" d="M7480.869,10524.74c-618.516-43.77-1173.677-214.809-1681.621-519.457
		c-718.145-430.195-1275.034-1098.238-1563.559-1872.818c-208.472-559.775-281.035-1152.949-212.505-1736.323
		c126.123-1076.357,727.934-2054.229,1632.094-2652.578c601.812-398.525,1322.837-615.635,2044.434-615.635
		c1300.952,0,2510.913,689.346,3178.95,1811.191c128.428,215.391,158.369,304.072,157.803,463.594
		c0,46.074-3.467,100.215-7.5,120.371c-19.57,99.043-55.273,189.463-105.381,265.488
		c-36.279,55.283-131.885,151.455-188.896,189.473c-44.922,29.941-123.818,69.102-129.004,63.34
		c-1.143-1.152-10.361-30.527-20.156-65.654c-54.131-187.734-157.217-425.586-267.207-616.777
		c-411.768-716.992-1101.123-1238.184-1901.616-1436.289c-616.21-153.193-1266.401-108.848-1860.151,127.266
		c-114.023,45.498-313.862,143.975-420.4,207.9c-510.244,305.801-903.584,729.668-1168.496,1258.34
		c-385.85,771.123-422.71,1675.854-101.357,2480.385c229.78,575.318,640.396,1076.347,1160.43,1415.552
		c422.134,275.277,889.189,435.951,1405.19,483.754c169.888,15.547,453.804,8.639,647.886-16.127
		c516-65.074,1032.578-279.313,1451.259-600.66c211.924-162.402,425.01-378.363,583.379-590.293
		c183.721-246.484,335.176-528.095,431.357-803.955c16.689-47.227,32.246-86.382,33.965-86.382c1.738,0,26.504,14.971,54.717,33.979
		c263.184,173.34,376.631,498.72,277.578,798.189c-23.037,69.105-55.283,129.58-133.604,247.637
		c-558.047,840.234-1429.375,1412.676-2425.103,1592.354c-232.084,41.469-355.327,52.406-619.086,54.711
		C7612.172,10525.893,7498.144,10525.893,7480.869,10524.74z M7989.965,10490.766c259.155-21.313,448.618-55.863,734.843-135.912
		c244.756-68.531,508.516-177.955,740.024-306.953c419.258-234.391,787.256-554.59,1073.477-935.26
		c61.611-81.777,168.74-244.18,216.533-325.957c34.551-60.469,108.271-205.02,104.238-205.02
		c-1.152,0-47.803,58.746-103.086,131.305c-126.699,164.131-206.172,255.121-352.451,403.705
		c-506.787,515.426-1141.426,872.48-1860.146,1046.406c-456.108,110.566-972.69,133.604-1454.14,65.074
		c-111.724-16.123-349.57-67.955-485.479-105.963c-539.043-150.889-1025.674-407.162-1475.449-776.885
		c-93.296-77.172-106.538-86.963-106.538-81.781c0,12.67,175.645,199.262,267.212,284.492
		c592.598,551.137,1326.294,874.789,2134.277,942.168C7556.308,10501.127,7856.928,10501.703,7989.965,10490.766z
		 M10800.917,4965.605c-36.855-73.711-93.867-169.307-151.465-253.965c-338.623-498.145-793.584-892.07-1348.75-1169.072
		c-73.14-36.855-261.46-117.48-342.085-146.279c-379.512-137.637-735.415-206.738-1145.454-221.719
		c-202.715-7.48-416.372,3.457-623.12,31.68c-134.185,18.428-181.411,26.484-270.674,46.064
		c-435.952,96.182-840.234,267.217-1194.985,505.068c-150.889,100.781-255.698,181.982-400.249,309.824
		c-109.419,96.182-352.451,353.604-379.517,401.406c-2.881,5.186,29.37-21.885,71.987-59.893
		c517.153-465.322,1121.851-775.156,1796.226-920.283c124.39-27.07,327.686-58.164,483.75-74.287
		c33.403-3.467,181.982-6.338,334.023-6.338c224.6-0.576,291.401,1.152,374.331,9.785c128.423,13.242,332.866,42.041,374.331,52.988
		c17.28,4.609,67.383,16.699,110.576,25.918c376.06,81.777,791.279,244.18,1124.727,439.98
		c260.303,152.617,537.305,361.66,736.572,555.742c150.303,145.703,310.4,323.076,427.891,472.813
		c24.766,31.094,45.498,55.859,46.65,54.707C10826.835,5019.17,10815.888,4994.404,10800.917,4965.605z"/>
	<path fill="#008C00" d="M7509.663,9831.361c-404.277-26.494-768.823-122.666-1125.874-296.586
		c-507.363-247.637-942.749-645.582-1238.184-1134.518c-212.505-351.298-350.142-746.943-402.549-1160.434
		c-24.189-187.739-27.07-518.877-6.338-693.945c57.593-487.793,217.69-927.197,480.874-1320.537
		c296.011-442.285,696.265-792.432,1171.953-1025.674c745.21-366.27,1638.999-396.787,2404.37-82.354
		c426.162,175.078,786.104,428.467,1097.656,771.699c228.633,251.67,418.105,557.471,549.98,885.156
		c36.289,90.996,98.486,278.74,95.605,287.949c-7.49,19.004-158.369,41.465-234.395,34.561
		c-174.492-16.133-315.586-79.473-434.805-193.506c-58.154-55.859-93.867-103.086-135.332-177.949
		c-164.707-297.168-378.94-546.533-639.243-742.334c-352.451-265.488-763.638-423.291-1200.747-460.723
		c-100.21-8.633-304.072-7.48-407.158,2.305c-702.017,67.383-1323.984,437.686-1712.144,1019.336
		c-206.167,309.258-325.381,634.063-375.483,1019.346c-14.399,115.751-14.399,415.209,0,529.819
		c39.16,301.768,116.904,553.433,248.789,807.407c180.83,347.836,442.285,638.667,771.123,856.934
		c499.302,331.719,1087.871,453.803,1687.383,350.717c448.046-76.592,888.608-305.225,1219.169-631.182
		c123.818-122.09,218.838-239.57,324.229-400.82c91.572-139.941,171.045-217.114,287.373-277.583
		c107.695-55.864,192.93-76.597,320.781-76.597c93.291,0,149.727,8.062,209.629,31.099c49.521,18.428,47.793,14.976,26.484,75.444
		c-294.863,836.201-913.955,1481.783-1727.69,1803.13c-258.003,101.938-517.734,163.559-803.378,191.201
		C7848.291,9833.666,7614.477,9838.275,7509.663,9831.361z M7792.426,9819.844c392.192-20.156,708.354-90.416,1032.587-230.934
		c255.698-111.146,468.779-253.398,657.095-438.832c80.059-79.479,80.059-80.055-2.881-17.857
		c-70.83,52.984-126.118,89.844-204.438,135.914c-391.035,231.508-797.617,361.664-1274.458,407.734
		c-223.447,21.309-578.203,13.246-775.737-17.852c-305.225-47.799-544.224-114.605-812.012-226.904
		c-63.35-26.49-303.501-147.432-319.624-160.674c-4.609-4.033-42.041-27.646-83.506-52.408
		c-40.889-25.342-114.604-74.291-164.131-109.418c-94.448-67.959-114.023-80.631-119.209-75.445
		c-5.762,5.182,20.156,35.127,88.11,101.357c98.481,95.602,162.983,146.279,310.41,242.451
		c411.191,269.521,924.888,425.592,1465.659,444.596c23.608,1.152,53.555,2.305,66.226,2.875
		C7669.189,9825.023,7730.234,9822.725,7792.426,9819.844z M10071.249,5234.551c-177.373-336.318-428.457-608.721-773.423-837.93
		c-232.666-154.336-551.138-296.006-829.292-367.988c-533.281-138.223-1136.245-130.156-1649.946,21.885
		c-74.868,21.875-244.185,85.225-336.899,125.537c-168.735,73.721-351.299,176.807-483.755,273.555
		c-49.526,36.279-115.181,89.834-89.263,73.145c28.794-18.438,194.653-104.248,269.517-138.799
		c355.903-164.707,693.96-255.693,1109.756-297.734c113.452-11.514,480.874-13.252,590.293-2.881
		c561.499,52.979,1059.077,223.447,1491.577,510.244c272.979,180.83,533.271,430.771,708.35,680.713
		c13.828,20.156,26.494,35.127,27.646,33.398C10106.962,5306.543,10091.405,5273.711,10071.249,5234.551z"/>
	<path fill="#008C00" d="M12858.026,7894.042c-17.285-33.403-34.561-52.407-47.227-52.407c-4.609,0-13.828-9.209-21.309-20.156
		c-7.49-10.942-19.58-22.461-26.494-25.913c-6.914-2.881-12.666-8.066-12.666-10.942c0-3.457-10.371-22.461-23.037-43.193
		c-12.1-20.732-26.494-48.374-31.104-61.045c-4.023-12.671-18.428-52.983-31.68-89.263l-23.027-66.23l18.428,22.466
		c50.107,59.888,47.227,57.588,60.469,50.098c10.361-5.762,13.818-4.028,27.07,13.823c12.09,15.552,17.852,19.004,25.342,14.399
		c8.057-4.033,16.123,0.571,38.008,23.032c22.461,22.466,30.518,27.642,42.617,25.342c12.09-2.305,21.885,4.028,53.555,33.403
		l38.584,36.279l-32.256,90.991c-17.842,49.531-33.965,90.415-35.703,90.415
		C12875.868,7925.141,12866.659,7911.318,12858.026,7894.042z M12894.296,7805.356l18.438-54.136l-19.004-19.575
		c-14.98-14.98-22.461-19.585-32.832-16.704c-9.785,2.305-19.58-2.881-41.465-23.608c-21.309-19.585-31.094-25.342-39.736-22.466
		c-8.057,2.31-18.428-1.152-30.518-10.366c-32.256-23.613-33.984-23.613-20.732,5.762c20.156,43.193,87.539,142.822,96.748,142.822
		c4.609,0,16.123,13.242,25.918,29.946c9.209,16.123,19.004,28.218,20.723,25.913
		C12873.573,7860.639,12883.358,7834.726,12894.296,7805.356z"/>
	<path fill="#008C00" d="M13616.483,7899.799c-168.75-54.707-250.518-245.903-172.197-403.701
		c37.432-76.021,94.443-125.542,173.916-150.884c104.814-32.827,218.262-4.609,296.592,74.863
		c61.045,61.626,93.291,156.646,80.625,237.847c-13.828,86.963-52.988,153.765-117.49,199.839
		C13801.337,7912.47,13703.437,7928.022,13616.483,7899.799z M13802.489,7833.574c48.955-23.037,89.844-62.769,112.881-109.419
		c17.275-35.703,18.428-41.465,18.428-101.357c0-57.588-1.152-66.23-16.123-96.177c-48.379-98.477-152.617-152.036-255.127-131.304
		c-72.568,14.971-134.189,62.773-167.588,131.304c-14.971,29.946-16.123,38.589-16.123,96.177s1.152,66.226,16.123,96.177
		C13552.548,7836.45,13688.466,7886.557,13802.489,7833.574z"/>
	<path fill="#008C00" d="M13573.856,7619.917v-155.493h31.68h31.67v66.802v67.383l24.189-3.452
		c30.518-4.033,46.65-20.156,79.473-80.625l26.494-47.227l38.584-1.729c21.309-1.152,38.584-0.576,38.584,1.157
		c0,8.057-65.078,112.871-77.168,123.813l-14.404,13.818l23.623,12.1c34.551,17.852,47.793,38.008,47.793,74.868
		c-0.576,21.299-4.033,35.127-13.242,47.798c-21.309,29.946-47.227,36.279-148.008,36.279h-89.268V7619.917z M13732.235,7721.274
		c22.461-9.785,31.094-30.522,21.309-52.407c-7.49-16.704-37.432-25.913-82.939-25.913h-33.398v43.193v43.188h37.441
		C13695.37,7729.335,13721.288,7725.883,13732.235,7721.274z"/>
	<path fill="#008C00" d="M7633.481,7406.835c-229.785-24.761-410.61-203.291-441.133-434.229
		c-16.704-126.699,21.88-265.479,102.51-370.869c97.9-127.275,256.846-198.682,422.129-188.896
		c80.054,4.609,88.691,6.338,138.789,24.189c76.597,27.061,145.708,72.559,184.287,120.938
		c14.976,19.004,16.704,25.342,16.704,62.197c0,40.313-0.576,42.041-21.309,62.197c-47.798,44.922-95.596,51.826-142.246,20.732
		c-95.601-65.078-135.337-80.048-205.02-80.048c-81.201,0-146.279,27.061-202.715,83.505
		c-40.889,40.889-73.145,94.438-61.626,101.919c4.614,2.881,70.84,5.186,147.437,4.619c135.908-0.586,140.513,0,164.131,13.242
		c34.551,19.004,43.765,65.073,21.88,108.267c-20.156,39.16-26.489,40.313-194.653,40.313c-81.777,0-150.313,1.729-152.612,3.452
		c-4.604,5.186,7.485,35.708,28.794,71.987c28.799,48.379,79.473,93.877,132.461,118.638c39.16,19.004,51.25,21.885,96.748,23.613
		c59.893,2.876,110.571-5.181,143.398-22.461c13.247-6.909,47.222-31.099,75.439-54.136c28.799-23.032,57.593-44.341,64.502-48.374
		c31.675-16.128,103.086,17.275,123.818,57.588c5.762,11.519,10.938,32.256,11.519,47.227c1.152,22.461-2.305,31.099-21.309,59.316
		c-31.675,45.498-86.958,89.844-155.493,123.818C7819.497,7399.921,7728.505,7417.202,7633.481,7406.835z"/>
	<path fill="#008C00" d="M8341.259,7398.769c-32.251-10.366-55.859-28.794-71.982-57.007l-13.828-24.189l-1.724-404.282
		c-1.729-403.701-1.729-404.853,10.938-433.642c6.914-16.123,21.309-36.865,32.256-46.074
		c17.275-14.971,23.608-17.275,54.707-17.275c50.679,0,82.925,16.699,99.058,51.26c11.519,25.908,12.09,32.813,12.09,304.638
		c0,152.612,1.152,277.583,2.881,277.583s89.839-123.818,195.806-274.116c105.967-150.888,201.563-283.925,211.353-296.015
		c10.366-12.09,32.832-31.104,50.107-42.617c28.213-19.004,35.127-20.732,70.835-20.732c65.649,0.576,101.353,23.604,119.785,77.744
		c8.638,25.918,9.79,66.807,8.638,420.4c0,240.723-2.881,401.401-6.333,416.953c-3.462,14.395-10.371,31.094-15.552,37.432
		c-14.395,16.123-64.502,38.008-88.11,38.008c-32.251,0-68.535-22.461-84.087-51.831l-13.242-24.761v-281.616
		c0-154.341-2.305-281.03-4.604-281.03c-10.366,0-152.612,203.862-146.855,209.619c2.3,1.729,0.571,3.452-2.305,3.452
		c-7.485,0-77.168,93.872-189.468,252.822c-97.329,138.789-110.571,153.76-148.008,164.707
		C8389.062,7408.559,8372.938,7408.559,8341.259,7398.769z"/>
	<path fill="#008C00" d="M11793.769,7400.502c-69.688-7.49-135.918-26.494-200.996-58.169
		c-52.402-25.913-67.383-36.855-112.871-81.777c-43.77-44.341-56.445-61.045-79.482-107.69
		c-36.846-74.863-51.25-143.975-51.25-244.18c0.576-82.354,9.209-135.337,34.561-197.524
		c45.488-115.185,114.023-184.873,241.875-247.636c72.559-35.713,122.09-44.346,255.117-44.346
		c104.814,0,116.328,1.152,175.078,16.123c106.543,28.223,199.824,70.264,245.898,111.729
		c29.375,26.484,33.984,51.826,33.984,190.615c-0.576,147.427-5.186,162.974-54.141,188.315l-34.551,17.275h-167.012
		c-165.859,0-167.578,0-189.463-13.242c-26.494-16.704-38.584-39.16-38.584-70.264c0-19.004,4.023-27.642,21.875-46.641
		c18.438-19.59,26.494-23.623,58.75-28.794c20.723-3.457,72.559-5.186,115.176-4.033l77.744,1.729l1.729-67.383l1.729-67.382
		l-19.004-9.785c-9.795-5.186-36.855-15.547-58.74-23.613c-122.666-42.041-241.299-41.465-329.414,1.152
		c-57.588,28.223-123.818,113.457-131.309,169.892c-1.729,10.942-5.762,33.97-9.209,51.25
		c-8.066,43.765-6.914,123.237,2.881,170.464c12.666,59.897,48.379,129.004,84.072,160.679
		c57.021,51.25,133.037,75.439,225.186,70.835c91.563-4.609,130.146-28.223,201.563-120.938
		c45.488-59.316,52.402-63.35,104.238-60.474c35.703,1.729,46.064,4.609,63.34,17.852c27.07,20.737,38.594,43.193,38.594,75.444
		c0,74.868-62.783,149.736-171.045,204.443C12044.853,7397.045,11921.034,7414.321,11793.769,7400.502z"/>
	<path fill="#008C00" d="M12593.681,7401.65c-27.07-8.638-48.955-28.218-61.621-54.131c-12.09-24.761-12.09-31.099-12.09-435.381
		c0-460.136-2.881-430.185,42.617-473.378c22.451-21.885,24.18-22.461,65.654-22.461c36.855,0,45.488,2.305,65.068,16.123
		c12.1,8.633,28.223,27.07,35.137,41.465l13.242,25.918l1.729,393.911c1.152,251.66-0.576,405.425-4.609,425.581
		c-6.328,35.708-20.156,54.136-53.555,71.416C12659.911,7403.383,12616.142,7408.559,12593.681,7401.65z"/>
	<path fill="#008C00" d="M13314.706,7401.65c-29.365-9.214-62.197-29.37-78.896-48.374
		c-16.123-18.428-77.744-158.95-306.377-698.559c-61.621-145.127-62.197-169.883-4.033-217.109
		c23.037-19.004,28.799-21.309,59.316-21.309c66.807,0,85.811,21.309,140.518,157.793l31.104,78.32l177.373,1.152
		c97.324,0.576,187.744,1.152,200.41,1.729h23.613l32.832-81.201c54.707-136.484,90.41-171.621,156.641-157.217
		c51.826,11.514,94.443,58.74,92.715,103.086c-1.152,32.246-13.818,62.197-164.121,406
		c-164.717,376.06-176.23,399.673-211.357,435.376C13427.577,7399.35,13364.228,7416.625,13314.706,7401.65z M13411.454,7026.743
		c25.342-65.073,54.141-137.061,63.926-160.679c9.795-23.608,17.852-43.188,17.852-44.341s-62.197-2.305-138.213-2.305h-137.637
		l8.057,21.885c4.033,11.519,11.523,29.375,16.123,38.584c13.828,27.07,88.691,222.295,93.301,243.604
		c5.186,23.618,20.156,40.313,26.484,28.799C13363.661,7148.256,13386.122,7091.821,13411.454,7026.743z"/>
	<path fill="#008C00" d="M9748.173,7395.317c-248.789-30.522-436.523-241.875-437.104-492.393
		c0-137.056,44.346-250.512,135.913-346.684c99.629-105.391,224.023-156.65,380.664-157.217
		c115.186-1.152,247.637,54.131,325.381,135.332c19.004,19.58,20.166,23.613,21.885,65.654c2.881,54.707-4.033,68.525-47.217,93.291
		c-21.309,12.1-36.855,16.699-57.012,16.699c-31.104,0-39.746-3.447-78.33-33.398c-39.736-30.517-101.924-57.587-147.422-64.501
		c-110.576-16.699-235.547,48.955-291.982,153.769l-16.123,28.794l39.736,4.023c22.461,2.305,90.41,4.033,151.455,3.457
		s114.033-0.576,118.066-0.576c3.447,0.576,14.395,6.904,23.604,14.971c14.98,12.676,16.709,17.28,17.861,52.988
		c0.566,29.946-1.738,43.193-10.371,57.588c-23.037,36.855-28.213,38.584-166.436,37.432c-68.535-0.576-137.637,0.576-152.607,2.305
		c-32.832,4.028-32.832,7.49-4.033,60.469c54.707,101.934,149.727,157.222,264.912,154.341
		c84.072-2.305,128.418-20.732,195.225-82.358c33.408-30.518,65.654-43.765,106.543-43.765c13.252,0,50.098,23.608,67.959,43.765
		c16.699,19.014,21.885,57.017,12.09,90.42c-15.547,53.555-104.814,129.575-196.953,168.164
		C9925.556,7391.284,9828.808,7405.107,9748.173,7395.317z"/>
	<path fill="#008C00" d="M10464.589,7383.798c-22.461-5.186-44.336-20.156-60.469-42.617c-12.09-15.547-12.09-21.885-13.818-430.771
		l-1.152-415.214l13.818-24.189c23.613-39.16,48.379-54.707,89.268-54.707c42.041,0,61.045,6.914,85.811,30.518
		c31.67,30.527,35.703,55.293,35.703,230.361v154.912l67.949-2.305c80.635-2.876,99.629-10.366,143.984-55.273
		c16.699-17.285,70.254-90.996,119.209-164.14c94.443-143.398,104.229-155.488,135.908-179.102
		c17.275-12.09,27.07-14.971,56.445-14.971c44.336,0,67.373,9.209,92.139,37.432c17.852,20.732,19.004,24.189,16.699,54.707
		c-1.729,23.613-9.209,46.074-26.494,81.201c-40.313,81.201-138.213,205.59-196.377,249.936c-30.527,23.037-30.527,31.675,0,31.675
		c8.066,0,35.703,10.366,61.621,22.466c100.781,48.95,145.703,118.633,145.703,225.171c0,93.296-35.703,162.402-109.424,211.929
		c-47.217,31.104-88.115,46.074-149.15,52.983C10913.212,7390.712,10493.388,7390.712,10464.589,7383.798z M10940.282,7210.454
		c57.588-29.946,80.625-95.02,52.402-149.155c-29.941-58.164-89.258-74.292-279.307-74.868c-54.131,0-100.205,1.729-101.357,4.604
		c-1.152,2.31-1.152,57.017,0.576,121.519l2.881,116.904l148.584-2.305C10908.026,7224.272,10913.212,7223.701,10940.282,7210.454z"
		/>
</g>
</svg>
